# xmcd
#
# Track frame offsets: 
#        150
#        13515
#        22762
#        35769
#        47578
#        60357
#        73608
#        85640
#        96428
#        109400
#        120594
#        133672
#        145559
#        156645
#        172449
#        184970
#        196364
#        207044
#        226252
#        239193
#
# Disc length: 3361 seconds
#
# Revision: 1
# Processed by: cddbd v1.5.2PL0 Copyright (c) Steve Scherf et al.
# Submitted via: ExactAudioCopyFreeDBPlugin 1.0
#
DISCID=1e0d1f14
DTITLE=Tammy Wynette - 2013 - The Essential Tammy Wynette Cd 1
DYEAR=2013
DGENRE=Country
TTITLE0=Apartment No. 9
TTITLE1=Your Good Girl's Gonna Go Bad
TTITLE2=My Elusive Dreams
TTITLE3=I Don't Wanna Play House
TTITLE4=Take Me to Your World
TTITLE5=D-I-V-O-R-C-E
TTITLE6=Stand By Your Man
TTITLE7=Singing My Song
TTITLE8=Too Far Gone
TTITLE9=The Ways to Love a Man
TTITLE10=I'll See Him Through
TTITLE11=He Loves Me All the Way
TTITLE12=Run, Woman, Run
TTITLE13=The Wonders You Perform
TTITLE14=We Sure Can Love Each Other
TTITLE15=Good Lovin' (Makes It Right)
TTITLE16=Take Me
TTITLE17=Bedtime Story
TTITLE18=Reach Out Your Hand
TTITLE19=My Man (Understands)
EXTD=
EXTT0=
EXTT1=
EXTT2=
EXTT3=
EXTT4=
EXTT5=
EXTT6=
EXTT7=
EXTT8=
EXTT9=
EXTT10=
EXTT11=
EXTT12=
EXTT13=
EXTT14=
EXTT15=
EXTT16=
EXTT17=
EXTT18=
EXTT19=
PLAYORDER=
